name rise36.2859peak64.2979fall75.1499.mot
datacolumns 19
datarows 29
range 6.01831400000000 6.06499100000000
endheader
time	ground_force1_vx	ground_force1_vy	ground_force1_vz	ground_force1_px	ground_force1_py	ground_force1_pz	ground_force2_vx	ground_force2_vy	ground_force2_vz	ground_force2_px	ground_force2_py	ground_force2_pz	ground_torque1_x	ground_torque1_y	ground_torque1_z	ground_torque2_x	ground_torque2_y	ground_torque2_z	
6.01831400000000	-40.76328300000000	798.65769299999999	56.45765800000000	0.22760100000000	0.00000000000000	0.08851300000000	-7.91646600000000	33.99535600000000	6.18829500000000	0.41632100000000	0.00000000000000	-0.09625300000000	0.00000000000000	32.18099400000000	0.00000000000000	0.00000000000000	4.31099600000000	0.00000000000000	
6.01998700000000	-41.03513000000000	795.92651499999999	56.17640300000000	0.22641000000000	0.00000000000000	0.08847700000000	-8.98029100000000	40.66490600000000	7.17519000000000	0.41623100000000	0.00000000000000	-0.09713200000000	0.00000000000000	31.95192000000000	0.00000000000000	0.00000000000000	5.02994800000000	0.00000000000000	
6.02164000000000	-41.31573300000000	793.08991700000001	55.87287400000000	0.22521800000000	0.00000000000000	0.08843800000000	-9.93034100000000	47.48257500000000	8.11779700000000	0.41648400000000	0.00000000000000	-0.09791000000000	0.00000000000000	31.71657000000000	0.00000000000000	0.00000000000000	5.73186500000000	0.00000000000000	
6.02330900000000	-41.60556000000000	790.14858700000002	55.54714500000000	0.22402800000000	0.00000000000000	0.08839400000000	-10.73461800000000	54.33630700000000	8.99185200000000	0.41701900000000	0.00000000000000	-0.09860400000000	0.00000000000000	31.47522500000000	0.00000000000000	0.00000000000000	6.40101600000000	0.00000000000000	
6.02498700000000	-41.90504500000000	787.10321099999999	55.19933200000000	0.22283900000000	0.00000000000000	0.08834600000000	-11.36973700000000	61.13291600000000	9.77833400000000	0.41778700000000	0.00000000000000	-0.09922600000000	0.00000000000000	31.22817400000000	0.00000000000000	0.00000000000000	7.02468900000000	0.00000000000000	
6.02664700000000	-42.21458400000000	783.95446800000002	54.82959000000000	0.22165400000000	0.00000000000000	0.08829300000000	-11.82170500000000	67.80273000000000	10.46420200000000	0.41875000000000	0.00000000000000	-0.09978700000000	0.00000000000000	30.97571000000000	0.00000000000000	0.00000000000000	7.59373000000000	0.00000000000000	
6.02831200000000	-42.53453700000000	780.70302500000003	54.43811300000000	0.22047300000000	0.00000000000000	0.08823700000000	-12.08582400000000	74.30157800000001	11.04253800000000	0.41987600000000	0.00000000000000	-0.10029700000000	0.00000000000000	30.71813200000000	0.00000000000000	0.00000000000000	8.10271500000000	0.00000000000000	
6.02998000000000	-42.86521600000000	777.34952999999996	54.02513700000000	0.21929900000000	0.00000000000000	0.08817500000000	-12.16585300000000	80.61035300000000	11.51215400000000	0.42113800000000	0.00000000000000	-0.10076200000000	0.00000000000000	30.45574200000000	0.00000000000000	0.00000000000000	8.54978500000000	0.00000000000000	
6.03166600000000	-43.20689000000000	773.89460299999996	53.59093200000000	0.21813200000000	0.00000000000000	0.08811000000000	-12.07261200000000	86.73257500000000	11.87680400000000	0.42251600000000	0.00000000000000	-0.10118900000000	0.00000000000000	30.18884300000000	0.00000000000000	0.00000000000000	8.93621900000000	0.00000000000000	
6.03331300000000	-43.55977800000000	770.33883700000001	53.13581100000000	0.21697300000000	0.00000000000000	0.08803900000000	-11.82225200000000	92.69052100000000	12.14412500000000	0.42399100000000	0.00000000000000	-0.10158200000000	0.00000000000000	29.91774000000000	0.00000000000000	0.00000000000000	9.26582300000000	0.00000000000000	
6.03498400000000	-43.92404500000000	766.68278799999996	52.66012100000000	0.21582400000000	0.00000000000000	0.08796300000000	-11.43437800000000	98.52048000000001	12.32443800000000	0.42554700000000	0.00000000000000	-0.10194600000000	0.00000000000000	29.64273500000000	0.00000000000000	0.00000000000000	9.54421700000000	0.00000000000000	
6.03664100000000	-44.29980400000000	762.92697499999997	52.16424500000000	0.21468700000000	0.00000000000000	0.08788300000000	-10.93021900000000	104.26767800000000	12.42954700000000	0.42717400000000	0.00000000000000	-0.10228500000000	0.00000000000000	29.36412900000000	0.00000000000000	0.00000000000000	9.77808500000000	0.00000000000000	
6.03831400000000	-44.68710700000000	759.07186999999999	51.64860200000000	0.21356200000000	0.00000000000000	0.08779800000000	-10.33097600000000	109.98135400000000	12.47161700000000	0.42885900000000	0.00000000000000	-0.10260100000000	0.00000000000000	29.08222000000000	0.00000000000000	0.00000000000000	9.97447200000000	0.00000000000000	
6.03998100000000	-45.08594700000000	755.11790299999996	51.11364500000000	0.21245200000000	0.00000000000000	0.08770700000000	-9.65644900000000	115.71033700000000	12.46222000000000	0.43059400000000	0.00000000000000	-0.10289700000000	0.00000000000000	28.79730000000000	0.00000000000000	0.00000000000000	10.14016600000000	0.00000000000000	
6.04164800000000	-45.49625400000000	751.06545200000005	50.55986000000000	0.21135700000000	0.00000000000000	0.08761200000000	-8.92400800000000	121.49940700000001	12.41159000000000	0.43237100000000	0.00000000000000	-0.10317600000000	0.00000000000000	28.50965500000000	0.00000000000000	0.00000000000000	10.28119800000000	0.00000000000000	
6.04331400000000	-45.91789200000000	746.91484400000002	49.98776500000000	0.21027900000000	0.00000000000000	0.08751100000000	-8.14792800000000	127.38655799999999	12.32810800000000	0.43418200000000	0.00000000000000	-0.10343800000000	0.00000000000000	28.21956400000000	0.00000000000000	0.00000000000000	10.40248600000000	0.00000000000000	
6.04499100000000	-46.35065700000000	742.66635399999996	49.39790600000000	0.20922000000000	0.00000000000000	0.08740500000000	-7.33906100000000	133.40123700000001	12.21801800000000	0.43602300000000	0.00000000000000	-0.10368700000000	0.00000000000000	27.92729700000000	0.00000000000000	0.00000000000000	10.50761800000000	0.00000000000000	
6.04664100000000	-46.79427600000000	738.32020199999999	48.79086000000000	0.20818000000000	0.00000000000000	0.08729400000000	-6.50483500000000	139.56350399999999	12.08535500000000	0.43788700000000	0.00000000000000	-0.10392300000000	0.00000000000000	27.63311400000000	0.00000000000000	0.00000000000000	10.59877600000000	0.00000000000000	
6.04831300000000	-47.24840400000000	733.87655500000005	48.16723200000000	0.20716200000000	0.00000000000000	0.08717700000000	-5.64948900000000	145.88400999999999	11.93204700000000	0.43977000000000	0.00000000000000	-0.10414800000000	0.00000000000000	27.33726400000000	0.00000000000000	0.00000000000000	10.67677300000000	0.00000000000000	
6.04997300000000	-47.71262400000000	729.33552499999996	47.52765100000000	0.20616600000000	0.00000000000000	0.08705500000000	-4.77451400000000	152.36465200000001	11.75816500000000	0.44166800000000	0.00000000000000	-0.10436200000000	0.00000000000000	27.03998600000000	0.00000000000000	0.00000000000000	10.74118600000000	0.00000000000000	
6.05164700000000	-48.18644100000000	724.69717100000003	46.87277100000000	0.20519300000000	0.00000000000000	0.08692800000000	-3.87920900000000	158.99972600000001	11.56225300000000	0.44357800000000	0.00000000000000	-0.10456700000000	0.00000000000000	26.74150400000000	0.00000000000000	0.00000000000000	10.79056200000000	0.00000000000000	
6.05330600000000	-48.66929000000000	719.96150000000000	46.20326900000000	0.20424700000000	0.00000000000000	0.08679500000000	-2.96129400000000	165.77740000000000	11.34172600000000	0.44549600000000	0.00000000000000	-0.10476400000000	0.00000000000000	26.44202800000000	0.00000000000000	0.00000000000000	10.82265600000000	0.00000000000000	
6.05497600000000	-49.16052500000000	715.12846900000000	45.51984400000000	0.20332600000000	0.00000000000000	0.08665700000000	-2.01752800000000	172.68134599999999	11.09327500000000	0.44741900000000	0.00000000000000	-0.10495300000000	0.00000000000000	26.14175600000000	0.00000000000000	0.00000000000000	10.83469800000000	0.00000000000000	
6.05664800000000	-49.65942500000000	710.19798600000001	44.82321200000000	0.20243300000000	0.00000000000000	0.08651300000000	-1.04428300000000	179.69237200000001	10.81324700000000	0.44934400000000	0.00000000000000	-0.10513500000000	0.00000000000000	25.84086900000000	0.00000000000000	0.00000000000000	10.82364300000000	0.00000000000000	
6.05830700000000	-50.16519400000000	705.16991499999995	44.11410900000000	0.20157000000000	0.00000000000000	0.08636300000000	-0.03803600000000	186.78993500000001	10.49799700000000	0.45127000000000	0.00000000000000	-0.10531000000000	0.00000000000000	25.53953400000000	0.00000000000000	0.00000000000000	10.78640800000000	0.00000000000000	
6.05998100000000	-50.67695600000000	700.04407900000001	43.39328400000000	0.20073600000000	0.00000000000000	0.08620900000000	1.00424000000000	193.95346200000000	10.14416400000000	0.45319200000000	0.00000000000000	-0.10548000000000	0.00000000000000	25.23790200000000	0.00000000000000	0.00000000000000	10.72006400000000	0.00000000000000	
6.06164500000000	-51.19376100000000	694.82026099999996	42.66150200000000	0.19993400000000	0.00000000000000	0.08604800000000	2.08478600000000	201.16339800000000	9.74889300000000	0.45511000000000	0.00000000000000	-0.10564400000000	0.00000000000000	24.93610700000000	0.00000000000000	0.00000000000000	10.62199700000000	0.00000000000000	
6.06331200000000	-51.71458300000000	689.49821399999996	41.91953700000000	0.19916400000000	0.00000000000000	0.08588200000000	3.20489200000000	208.40197499999999	9.30996800000000	0.45702100000000	0.00000000000000	-0.10580200000000	0.00000000000000	24.63426900000000	0.00000000000000	0.00000000000000	10.49001400000000	0.00000000000000	
6.06499100000000	-52.23832200000000	684.07766000000004	41.16817800000000	0.19842800000000	0.00000000000000	0.08571100000000	4.36482200000000	215.65370100000001	8.82589500000000	0.45892300000000	0.00000000000000	-0.10595700000000	0.00000000000000	24.33248800000000	0.00000000000000	0.00000000000000	10.32240900000000	0.00000000000000	
